<svg width="40" height="40" viewBox="0 0 40 40" fill="none" xmlns="http://www.w3.org/2000/svg">
<path d="M20 3.33331C10.81 3.33331 3.33337 10.81 3.33337 20C3.33337 29.19 10.81 36.6666 20 36.6666C29.19 36.6666 36.6667 29.19 36.6667 20C36.6667 10.81 29.19 3.33331 20 3.33331ZM20 33.3333C12.6484 33.3333 6.66671 27.3516 6.66671 20C6.66671 12.6483 12.6484 6.66665 20 6.66665C27.3517 6.66665 33.3334 12.6483 33.3334 20C33.3334 27.3516 27.3517 33.3333 20 33.3333Z" fill="#211E26"/>
<path d="M14.1667 20C15.5474 20 16.6667 18.8807 16.6667 17.5C16.6667 16.1193 15.5474 15 14.1667 15C12.786 15 11.6667 16.1193 11.6667 17.5C11.6667 18.8807 12.786 20 14.1667 20Z" fill="#211E26"/>
<path d="M25.8217 19.9766C27.196 19.9766 28.31 18.8626 28.31 17.4883C28.31 16.114 27.196 15 25.8217 15C24.4474 15 23.3334 16.114 23.3334 17.4883C23.3334 18.8626 24.4474 19.9766 25.8217 19.9766Z" fill="#211E26"/>
<path d="M20 30C26.6667 30 28.3334 23.3333 28.3334 23.3333H11.6667C11.6667 23.3333 13.3334 30 20 30Z" fill="#211E26"/>
</svg>
