<svg width="40" height="40" viewBox="0 0 40 40" fill="none" xmlns="http://www.w3.org/2000/svg">
<path fill-rule="evenodd" clip-rule="evenodd" d="M15.8334 15.8334C18.4759 15.8334 20.708 14.0763 21.4251 11.6667H36.6667V8.33335H21.4251C20.708 5.92378 18.4759 4.16669 15.8334 4.16669C12.6117 4.16669 10 6.77836 10 10C10 13.2217 12.6117 15.8334 15.8334 15.8334ZM18.3334 10C18.3334 11.3807 17.2141 12.5 15.8334 12.5C14.4527 12.5 13.3334 11.3807 13.3334 10C13.3334 8.61931 14.4527 7.50002 15.8334 7.50002C17.2141 7.50002 18.3334 8.61931 18.3334 10Z" fill="#211E26"/>
<path fill-rule="evenodd" clip-rule="evenodd" d="M27.5 25.8334C30.1426 25.8334 32.3747 24.0763 33.0918 21.6667H36.6667V18.3334H33.0918C32.3747 15.9238 30.1426 14.1667 27.5 14.1667C24.2784 14.1667 21.6667 16.7784 21.6667 20C21.6667 23.2217 24.2784 25.8334 27.5 25.8334ZM27.5 22.5C28.8808 22.5 30 21.3807 30 20C30 18.6193 28.8808 17.5 27.5 17.5C26.1193 17.5 25 18.6193 25 20C25 21.3807 26.1193 22.5 27.5 22.5Z" fill="#211E26"/>
<path fill-rule="evenodd" clip-rule="evenodd" d="M12.5 35.8334C15.7217 35.8334 18.3334 33.2217 18.3334 30C18.3334 26.7784 15.7217 24.1667 12.5 24.1667C9.85752 24.1667 7.6254 25.9238 6.90827 28.3334H3.33337V31.6667H6.90827C7.6254 34.0763 9.85752 35.8334 12.5 35.8334ZM12.5 32.5C13.8808 32.5 15 31.3807 15 30C15 28.6193 13.8808 27.5 12.5 27.5C11.1193 27.5 10 28.6193 10 30C10 31.3807 11.1193 32.5 12.5 32.5Z" fill="#211E26"/>
<path d="M20 28.3334H36.6667V31.6667H20V28.3334Z" fill="#211E26"/>
<path d="M20 18.3334H3.33337V21.6667H20V18.3334Z" fill="#211E26"/>
<path d="M8.33337 8.33335H3.33337V11.6667H8.33337V8.33335Z" fill="#211E26"/>
</svg>
