<svg width="548" height="317" viewBox="0 0 548 317" fill="none" xmlns="http://www.w3.org/2000/svg">
<rect width="366.935" height="265.827" rx="10" transform="matrix(0.866044 0.499967 -0.866044 0.499967 230.218 0)" fill="#671DDF"/>
<g filter="url(#filter0_i)">
<path d="M221.558 4.99967C226.341 2.23843 234.095 2.23843 238.878 4.99967L538.76 178.121C543.543 180.882 543.543 185.359 538.76 188.12L503.348 208.564L186.146 25.4427L221.558 4.99967Z" fill="#211E26"/>
</g>
<circle r="6.6959" transform="matrix(0.866044 0.499967 -0.866044 0.499967 233.117 21.7602)" fill="#FF1B6D"/>
<circle r="6.6959" transform="matrix(0.866044 0.499967 -0.866044 0.499967 249.934 31.4687)" fill="#FFE81B"/>
<circle r="6.6959" transform="matrix(0.866044 0.499967 -0.866044 0.499967 266.751 41.1771)" fill="#1FFF1B"/>
<path d="M280.707 52.5374C285.49 49.7762 293.245 49.7762 298.028 52.5374L374.65 96.7713C379.433 99.5325 379.433 104.009 374.65 106.771L350.836 120.518L256.893 66.285L280.707 52.5374Z" fill="#671DDF"/>
<path fill-rule="evenodd" clip-rule="evenodd" d="M206.442 197.181C232.704 212.342 275.283 212.342 301.545 197.181C327.807 182.02 327.807 157.439 301.545 142.278C275.283 127.118 232.704 127.118 206.442 142.278C180.18 157.439 180.18 182.02 206.442 197.181ZM297.547 170.036L291.446 156.893C289.456 152.606 283.656 149.257 276.23 148.109L253.463 144.587C246.037 143.438 238.113 144.664 232.677 147.802L216.01 157.424C210.574 160.562 208.451 165.136 210.441 169.423L216.541 182.567C218.531 186.854 224.331 190.203 231.758 191.351L254.524 194.873C261.951 196.022 269.874 194.796 275.31 191.658L291.977 182.036C297.413 178.898 299.536 174.323 297.547 170.036Z" fill="white"/>
<path d="M269.686 179.338C261.019 184.341 246.968 184.341 238.302 179.338C229.635 174.335 229.635 166.223 238.302 161.22C246.968 156.217 261.019 156.217 269.686 161.22C278.352 166.223 278.352 174.335 269.686 179.338Z" fill="white"/>
<defs>
<filter id="filter0_i" x="186.146" y="-1.07126" width="356.201" height="209.635" filterUnits="userSpaceOnUse" color-interpolation-filters="sRGB">
<feFlood flood-opacity="0" result="BackgroundImageFix"/>
<feBlend mode="normal" in="SourceGraphic" in2="BackgroundImageFix" result="shape"/>
<feColorMatrix in="SourceAlpha" type="matrix" values="0 0 0 0 0 0 0 0 0 0 0 0 0 0 0 0 0 0 127 0" result="hardAlpha"/>
<feOffset dy="-4"/>
<feGaussianBlur stdDeviation="2"/>
<feComposite in2="hardAlpha" operator="arithmetic" k2="-1" k3="1"/>
<feColorMatrix type="matrix" values="0 0 0 0 0 0 0 0 0 0 0 0 0 0 0 0 0 0 0.5 0"/>
<feBlend mode="normal" in2="shape" result="effect1_innerShadow"/>
</filter>
</defs>
</svg>
