<svg width="184" height="40" viewBox="0 0 184 40" fill="none" xmlns="http://www.w3.org/2000/svg">
<path d="M52.8 30.0463V5.60001H63.185C64.3504 5.60001 65.4129 5.84103 66.3725 6.32307C67.3551 6.78215 68.2005 7.4134 68.9088 8.2168C69.6172 8.99724 70.1655 9.88098 70.554 10.868C70.9424 11.8551 71.1366 12.8536 71.1366 13.8636C71.1366 15.2867 70.8053 16.6296 70.1427 17.892C69.5029 19.1545 68.6004 20.1875 67.435 20.9909C66.2697 21.7713 64.9102 22.1615 63.3564 22.1615H58.4209V34.8883L52.8 30.0463ZM58.4209 17.2378H63.0137C63.6763 17.2378 64.2475 16.9509 64.7274 16.3771C65.2072 15.8032 65.4471 14.9654 65.4471 13.8636C65.4471 12.7388 65.1615 11.9124 64.5903 11.3845C64.0419 10.8336 63.4478 10.5581 62.808 10.5581H58.4209V17.2378Z" fill="#211E26"/>
<path d="M85.1221 16.6869C83.7968 16.7099 82.5972 16.928 81.5233 17.3411C80.4494 17.7543 79.6725 18.3741 79.1927 19.2004V30.0463H73.7088V11.9698H78.7471V15.6196C79.364 14.403 80.1638 13.4504 81.1463 12.7617C82.1288 12.0731 83.157 11.7173 84.231 11.6944C84.688 11.6944 84.985 11.7059 85.1221 11.7288V16.6869Z" fill="#211E26"/>
<path d="M95.8665 30.3907C93.81 30.3907 92.0621 29.9545 90.6226 29.0823C89.2059 28.21 88.1205 27.0623 87.3665 25.6391C86.6125 24.2159 86.2355 22.678 86.2355 21.0253C86.2355 19.3496 86.6125 17.8002 87.3665 16.3771C88.1205 14.9539 89.2173 13.8062 90.6568 12.9339C92.0963 12.0616 93.8329 11.6255 95.8665 11.6255C97.9001 11.6255 99.6366 12.0616 101.076 12.9339C102.516 13.8062 103.612 14.9539 104.366 16.3771C105.121 17.8002 105.498 19.3496 105.498 21.0253C105.498 22.678 105.121 24.2159 104.366 25.6391C103.612 27.0623 102.516 28.21 101.076 29.0823C99.6366 29.9545 97.9001 30.3907 95.8665 30.3907ZM91.8564 21.0253C91.8564 22.4255 92.2334 23.5618 92.9875 24.434C93.7643 25.3063 94.724 25.7424 95.8665 25.7424C96.9861 25.7424 97.9229 25.3063 98.677 24.434C99.4538 23.5618 99.8423 22.4255 99.8423 21.0253C99.8423 19.6251 99.4538 18.4888 98.677 17.6166C97.9229 16.7443 96.9861 16.3082 95.8665 16.3082C94.724 16.3082 93.7643 16.7443 92.9875 17.6166C92.2334 18.4888 91.8564 19.6251 91.8564 21.0253Z" fill="#211E26"/>
<path d="M116.82 30.3907C114.809 30.3907 113.073 29.9545 111.61 29.0823C110.171 28.21 109.063 27.0623 108.286 25.6391C107.532 24.2159 107.155 22.6665 107.155 20.9909C107.155 19.3382 107.532 17.8002 108.286 16.3771C109.063 14.9539 110.171 13.8062 111.61 12.9339C113.05 12.0616 114.786 11.6255 116.82 11.6255C118.876 11.6255 120.613 12.0731 122.03 12.9683C123.469 13.8406 124.543 14.9883 125.251 16.4115L119.905 18.0298C119.196 16.882 118.157 16.3082 116.786 16.3082C115.666 16.3082 114.718 16.7328 113.941 17.5822C113.164 18.4315 112.776 19.5677 112.776 20.9909C112.776 22.414 113.164 23.5618 113.941 24.434C114.718 25.3063 115.666 25.7424 116.786 25.7424C117.471 25.7424 118.1 25.5817 118.671 25.2604C119.242 24.9161 119.665 24.4799 119.939 23.952L125.286 25.6047C124.623 27.0049 123.561 28.1526 122.098 29.0478C120.659 29.943 118.899 30.3907 116.82 30.3907Z" fill="#211E26"/>
<path d="M127.533 32.7664C128.47 33.0648 129.258 33.214 129.898 33.214C130.538 33.214 131.04 32.9845 131.406 32.5254C131.795 32.0663 132.137 31.24 132.434 30.0463L125.579 11.9698H131.235L135.416 24.3996L138.981 11.9698H144.156L137.301 32.973C136.821 34.465 135.953 35.6701 134.696 36.5883C133.463 37.5294 132.012 38 130.344 38C129.384 38 128.447 37.8279 127.533 37.4835V32.7664Z" fill="#211E26"/>
<path d="M154.307 30.3907C152.25 30.3907 150.502 29.9545 149.063 29.0823C147.646 28.21 146.561 27.0623 145.807 25.6391C145.053 24.2159 144.676 22.678 144.676 21.0253C144.676 19.3496 145.053 17.8002 145.807 16.3771C146.561 14.9539 147.657 13.8062 149.097 12.9339C150.536 12.0616 152.273 11.6255 154.307 11.6255C156.34 11.6255 158.077 12.0616 159.516 12.9339C160.956 13.8062 162.053 14.9539 162.807 16.3771C163.561 17.8002 163.938 19.3496 163.938 21.0253C163.938 22.678 163.561 24.2159 162.807 25.6391C162.053 27.0623 160.956 28.21 159.516 29.0823C158.077 29.9545 156.34 30.3907 154.307 30.3907ZM150.296 21.0253C150.296 22.4255 150.673 23.5618 151.428 24.434C152.204 25.3063 153.164 25.7424 154.307 25.7424C155.426 25.7424 156.363 25.3063 157.117 24.434C157.894 23.5618 158.282 22.4255 158.282 21.0253C158.282 19.6251 157.894 18.4888 157.117 17.6166C156.363 16.7443 155.426 16.3082 154.307 16.3082C153.164 16.3082 152.204 16.7443 151.428 17.6166C150.673 18.4888 150.296 19.6251 150.296 21.0253Z" fill="#211E26"/>
<path d="M184 30.0463H178.516V19.8891C178.516 18.6954 178.288 17.8347 177.831 17.3067C177.396 16.7558 176.814 16.4803 176.083 16.4803C175.329 16.4803 174.563 16.7788 173.786 17.3756C173.009 17.9724 172.461 18.7413 172.141 19.6825V30.0463H166.657V11.9698H171.593V14.9998C172.255 13.9439 173.192 13.1175 174.403 12.5207C175.614 11.9239 177.008 11.6255 178.585 11.6255C179.75 11.6255 180.687 11.8436 181.395 12.2797C182.126 12.6929 182.675 13.2438 183.04 13.9324C183.429 14.5981 183.68 15.3326 183.794 16.136C183.931 16.9394 184 17.7199 184 18.4774V30.0463Z" fill="#211E26"/>
<path fill-rule="evenodd" clip-rule="evenodd" d="M20 40C31.0457 40 40 31.0457 40 20C40 8.95431 31.0457 0 20 0C8.95431 0 0 8.95431 0 20C0 31.0457 8.95431 40 20 40ZM29.2708 10.9525L23.2 7.44752C21.2198 6.30427 18.7802 6.30427 16.8 7.44752L10.7292 10.9525C8.74907 12.0957 7.52923 14.2085 7.52923 16.495V23.505C7.52923 25.7915 8.74907 27.9043 10.7292 29.0475L16.8 32.5525C18.7802 33.6957 21.2198 33.6957 23.2 32.5525L29.2708 29.0475C31.2509 27.9043 32.4708 25.7915 32.4708 23.505V16.495C32.4708 14.2085 31.2509 12.0957 29.2708 10.9525Z" fill="#671DDF"/>
<path d="M26.8 20.2C26.8 23.8451 23.8451 26.8 20.2 26.8C16.5549 26.8 13.6 23.8451 13.6 20.2C13.6 16.5549 16.5549 13.6 20.2 13.6C23.8451 13.6 26.8 16.5549 26.8 20.2Z" fill="#671DDF"/>
</svg>
